<!DOCTYPE svg PUBLIC "-//W3C//DTD SVG 20010904//EN" "http://www.w3.org/TR/2001/REC-SVG-20010904/DTD/svg10.dtd">
<svg version="1.0" xmlns="http://www.w3.org/2000/svg" width="1471px" height="716px" viewBox="0 0 14710 7160" preserveAspectRatio="xMidYMid meet">
<g id="layer1" fill="#3f474d" stroke="none">
 <path d="M7174 7145 c-500 -77 -891 -482 -954 -988 l-12 -97 -3104 0 -3104 0 0 -2490 0 -2490 3100 0 c1705 0 3100 -3 3100 -7 0 -5 7 -51 15 -103 74 -493 462 -881 955 -955 628 -96 1211 331 1305 955 8 52 15 98 15 103 0 4 1400 7 3110 7 l3110 0 0 2490 0 2490 -3104 0 -3104 0 -12 97 c-64 509 -455 912 -960 988 -113 18 -245 18 -356 0z m427 -169 c436 -111 739 -496 743 -943 l1 -123 673 0 672 0 0 -600 0 -599 -37 -6 c-306 -49 -512 -151 -697 -345 -421 -441 -421 -1129 0 -1570 185 -194 391 -296 697 -345 l37 -6 0 -604 0 -605 -673 0 -674 0 -6 -117 c-24 -460 -322 -825 -763 -935 -126 -31 -332 -31 -458 0 -441 110 -739 475 -763 934 l-6 118 -669 0 -668 0 2 607 3 607 83 13 c148 23 316 91 456 185 78 53 231 206 284 284 237 353 267 788 81 1158 -22 43 -59 106 -81 140 -53 78 -206 231 -284 284 -140 94 -308 162 -456 185 l-83 13 -3 602 -2 602 677 0 678 0 1 123 c4 487 358 889 850 967 97 15 276 4 385 -24z m-2771 -1413 c0 -192 3 -492 7 -669 l6 -321 106 -6 c450 -26 815 -327 923 -763 31 -126 31 -332 0 -458 -108 -436 -473 -737 -923 -763 l-106 -6 -6 -336 c-4 -185 -7 -488 -7 -673 l0 -338 -2340 0 -2340 0 0 2340 0 2340 2340 0 2340 0 0 -347z m9730 -1993 l0 -2340 -2340 0 -2340 0 0 678 0 677 -123 1 c-447 4 -827 303 -944 743 -22 83 -26 117 -26 246 0 129 4 163 26 246 117 440 497 739 944 743 l123 1 0 673 0 672 2340 0 2340 0 0 -2340z"/>
 <path d="M7238 4703 l-38 -4 0 -1193 0 -1193 46 -7 c60 -8 218 -8 278 0 l46 7 0 1192 0 1192 -52 7 c-55 6 -215 6 -280 -1z"/>
 <path d="M2052 4674 c-39 -19 -59 -38 -80 -72 l-27 -47 0 -1125 0 -1125 120 0 c146 0 176 13 215 90 l25 50 3 975 3 975 102 -6 c56 -4 282 -7 501 -8 l399 -1 -5 83 c-9 132 -58 203 -158 226 -28 7 -238 11 -546 11 l-500 0 -52 -26z"/>
 <path d="M12781 4709 c-88 -27 -111 -67 -207 -371 l-68 -218 -451 0 -451 0 -90 286 c-77 247 -92 287 -112 295 -32 12 -210 11 -272 -2 -34 -7 -50 -16 -50 -26 0 -15 779 -2352 787 -2362 7 -9 329 -12 372 -4 l43 8 389 1174 c214 646 389 1178 389 1182 0 31 -207 60 -279 38z m-375 -906 c-3 -10 -42 -133 -86 -273 -97 -305 -199 -643 -230 -760 -22 -83 -34 -109 -45 -98 -3 3 -17 52 -31 108 -38 157 -96 354 -206 700 -56 173 -103 321 -106 328 -3 9 71 12 353 12 335 0 356 -1 351 -17z"/>
 </g>
<g id="layer2" fill="#f9f7ef" stroke="none">
 <path d="M7269 7006 c-2 -2 -28 -7 -57 -10 -58 -7 -193 -41 -220 -56 -9 -5 -42 -20 -72 -34 -158 -73 -310 -212 -418 -381 -7 -11 -24 -45 -38 -75 -14 -30 -29 -63 -34 -72 -14 -26 -49 -159 -57 -220 -4 -29 -8 -97 -8 -151 l0 -97 -678 0 -677 0 2 -602 c3 -592 3 -601 23 -604 11 -2 40 -6 65 -9 132 -18 309 -90 452 -185 106 -71 217 -182 288 -288 95 -143 163 -310 187 -457 10 -65 10 -315 0 -380 -36 -218 -158 -454 -318 -614 -159 -159 -409 -289 -609 -316 -25 -3 -54 -7 -65 -9 -20 -3 -20 -12 -23 -609 l-2 -607 670 0 c368 0 670 -3 670 -7 1 -5 3 -53 5 -108 4 -106 7 -123 31 -225 16 -66 22 -83 68 -180 74 -160 212 -310 381 -418 11 -7 45 -24 75 -38 30 -14 63 -29 72 -34 26 -14 159 -49 220 -57 68 -10 218 -10 286 0 61 8 194 43 220 57 9 5 42 20 72 34 158 73 310 212 418 381 12 19 49 96 77 160 12 28 37 123 50 190 3 17 8 75 10 130 2 55 4 103 5 108 0 4 304 7 675 7 l675 0 0 605 c0 477 -3 605 -12 606 -7 0 -22 2 -33 4 -11 2 -40 7 -65 10 -132 18 -309 90 -452 185 -106 71 -217 182 -288 288 -95 143 -163 310 -187 457 -10 65 -10 315 0 380 36 218 158 454 318 614 159 159 409 289 609 316 25 3 54 8 65 10 11 2 26 4 33 4 9 1 12 128 12 601 l0 600 -672 0 -673 0 0 97 c0 54 -4 122 -8 151 -8 61 -43 194 -57 220 -5 9 -20 42 -34 72 -73 158 -212 310 -381 418 -19 12 -96 49 -160 77 -28 12 -124 38 -190 50 -35 7 -241 16 -246 11z m274 -2303 l27 -5 0 -1193 0 -1193 -27 -5 c-36 -7 -280 -7 -315 0 l-28 5 0 1193 0 1194 23 4 c34 5 289 6 320 0z"/>
 <path d="M150 3570 l0 -2340 2340 0 2340 0 0 333 c0 184 3 489 7 678 l6 344 76 0 c42 1 100 4 129 8 61 8 194 43 220 57 9 5 42 20 72 34 158 73 310 212 418 381 7 11 24 45 38 75 14 30 29 63 34 72 14 26 49 159 57 220 10 68 10 218 0 286 -8 61 -43 194 -57 220 -5 9 -20 42 -34 72 -73 158 -212 310 -381 418 -11 7 -45 24 -75 38 -30 14 -63 29 -72 34 -26 14 -159 49 -220 57 -29 4 -87 7 -129 8 l-76 0 -6 329 c-4 181 -7 484 -7 673 l0 343 -2340 0 -2340 0 0 -2340z m3061 1096 c54 -34 87 -91 95 -161 2 -28 7 -67 9 -88 l5 -38 -437 2 c-241 1 -468 5 -505 8 l-68 6 -1 -935 c-1 -514 -3 -955 -5 -980 -6 -69 -22 -106 -59 -139 -39 -34 -95 -44 -220 -39 l-80 3 0 1126 c0 1225 -3 1151 55 1209 61 61 44 59 630 57 l535 -2 46 -29z"/>
 <path d="M9880 5238 l0 -673 -97 0 c-54 0 -122 -4 -151 -8 -61 -8 -194 -43 -220 -57 -9 -5 -42 -20 -72 -34 -158 -73 -310 -212 -418 -381 -7 -11 -24 -45 -38 -75 -14 -30 -29 -63 -34 -72 -14 -26 -49 -159 -57 -220 -10 -68 -10 -218 0 -286 8 -61 43 -194 57 -220 5 -9 20 -42 34 -72 73 -158 212 -310 381 -418 11 -7 45 -24 75 -38 30 -14 63 -29 72 -34 26 -14 159 -49 220 -57 29 -4 97 -8 151 -8 l97 0 0 -677 0 -678 2340 0 2340 0 0 2340 0 2340 -2340 0 -2340 0 0 -672z m1519 -533 c8 -1 18 -8 22 -16 9 -16 50 -143 104 -314 20 -66 47 -149 59 -185 l23 -65 448 0 447 0 23 65 c13 36 42 126 65 200 23 74 58 169 78 210 32 63 43 77 80 96 73 35 236 28 300 -14 16 -10 -71 -282 -503 -1577 -225 -672 -267 -790 -286 -797 -12 -5 -105 -7 -207 -6 -154 3 -186 6 -190 18 -3 8 -180 537 -393 1176 -214 638 -389 1168 -389 1177 0 15 52 30 140 40 30 4 130 -1 179 -8z"/>
 <path d="M11704 3808 c2 -7 14 -44 26 -83 26 -82 89 -279 135 -420 19 -55 41 -127 50 -160 9 -33 21 -71 25 -85 4 -14 13 -45 20 -70 7 -25 18 -63 25 -85 11 -35 37 -144 51 -213 7 -34 26 -14 43 45 7 26 26 93 42 148 16 55 37 125 45 155 9 30 22 73 29 95 7 22 25 81 40 130 15 50 40 128 55 175 44 134 71 219 95 303 l23 77 -355 0 c-280 0 -354 -3 -349 -12z"/>
 </g>

</svg>